<?xml version="1.0" encoding="UTF-8"?>
<svg xmlns="http://www.w3.org/2000/svg" xmlns:xlink="http://www.w3.org/1999/xlink" version="1.1" viewBox="0 0 64 64">
  <!-- Generator: Adobe Illustrator 30.2.1, SVG Export Plug-In . SVG Version: 2.1.1 Build 1)  -->
  <defs>
    <style>
      .st0 {
        fill: #26c3b5;
      }

      .st1 {
        fill: #4aeeb7;
      }

      .st2 {
        display: none;
      }
    </style>
  </defs>
  <g id="Layer_1" class="st2">
    <image width="182" height="179" transform="translate(-261 -57.5)" xlink:href="../../Library/CloudStorage/GoogleDrive-info@blankrecruitmentmarketing.com.au/My Drive/3. Client Work/Green Flag Tech/unnamed.png"/>
  </g>
  <g id="Layer_2">
    <g>
      <polygon class="st0" points="-211.4 13.9 -260.9 13.9 -260.9 -21.9 -169.8 -21.9 -211.4 13.9"/>
      <polygon class="st1" points="-128.5 -57.6 -79 -57.6 -79 -21.8 -170.1 -21.8 -128.5 -57.6"/>
    </g>
    <g>
      <polygon class="st0" points="-211.4 67.7 -260.9 67.7 -260.9 31.9 -169.8 31.9 -211.4 67.7"/>
      <polygon class="st1" points="-128.5 -3.7 -79 -3.7 -79 32.1 -170.1 32.1 -128.5 -3.7"/>
    </g>
    <g>
      <polygon class="st0" points="-211.4 121.6 -260.9 121.6 -260.9 85.8 -169.8 85.8 -211.4 121.6"/>
      <polygon class="st1" points="-128.5 50.1 -79 50.1 -79 85.9 -170.1 85.9 -128.5 50.1"/>
    </g>
    <g>
      <polygon class="st0" points="17.4 25.1 0 25.1 0 12.5 32 12.5 17.4 25.1"/>
      <polygon class="st1" points="46.6 0 64 0 64 12.6 32 12.6 46.6 0"/>
    </g>
    <g>
      <polygon class="st0" points="17.4 44.6 0 44.6 0 32 32 32 17.4 44.6"/>
      <polygon class="st1" points="46.6 19.5 64 19.5 64 32.1 32 32.1 46.6 19.5"/>
    </g>
    <g>
      <polygon class="st0" points="17.4 64.1 0 64.1 0 51.6 32 51.6 17.4 64.1"/>
      <polygon class="st1" points="46.6 39 64 39 64 51.6 32 51.6 46.6 39"/>
    </g>
  </g>
</svg>