<?xml version="1.0" encoding="UTF-8"?>
<svg xmlns="http://www.w3.org/2000/svg" viewBox="0 0 64 64" fill="none">
  <defs>
    <style>
      .st0 { fill: #26c3b5; }
      .st1 { fill: #4aeeb7; }
    </style>
  </defs>
  <g>
    <polygon class="st0" points="17.4 25.1 0 25.1 0 12.5 32 12.5 17.4 25.1"/>
    <polygon class="st1" points="46.6 0 64 0 64 12.6 32 12.6 46.6 0"/>
  </g>
  <g>
    <polygon class="st0" points="17.4 44.6 0 44.6 0 32 32 32 17.4 44.6"/>
    <polygon class="st1" points="46.6 19.5 64 19.5 64 32.1 32 32.1 46.6 19.5"/>
  </g>
  <g>
    <polygon class="st0" points="17.4 64.1 0 64.1 0 51.6 32 51.6 17.4 64.1"/>
    <polygon class="st1" points="46.6 39 64 39 64 51.6 32 51.6 46.6 39"/>
  </g>
</svg>
